<svg xmlns="http://www.w3.org/2000/svg" viewBox="0 0 500 400" preserveAspectRatio="xMidYMid meet">
<path d="M 247 358 L 252 356 L 256 359 L 251 361 Z M 265 347 L 268 351 L 266 353 L 263 353 L 261 350 Z M 191 334 L 194 337 L 222 354 L 225 354 L 231 350 L 239 347 L 243 351 L 233 358 L 232 360 L 249 371 L 252 371 L 298 342 L 292 337 L 240 305 L 237 305 L 231 310 L 280 339 L 282 342 L 278 344 L 275 344 L 265 338 L 262 338 L 252 345 L 250 345 L 247 342 L 257 335 L 258 333 L 226 313 L 222 314 L 218 318 L 240 331 L 242 333 L 240 336 L 225 345 L 222 345 L 210 338 L 207 335 L 209 332 L 212 331 L 222 337 L 226 337 L 231 335 L 231 334 L 213 322 L 210 322 Z M 258 307 L 258 308 L 303 337 L 306 337 L 312 333 L 309 330 L 266 304 L 263 304 Z M 231 300 L 198 280 L 195 280 L 177 292 L 177 293 L 201 309 L 199 312 L 185 321 L 181 320 L 166 309 L 171 307 L 182 314 L 185 314 L 191 309 L 172 297 L 169 297 L 151 309 L 150 311 L 182 329 L 187 330 L 217 310 L 211 305 L 197 297 L 194 294 L 195 290 L 201 291 L 222 305 L 225 305 Z M 310 284 L 306 279 L 297 282 L 298 284 L 303 287 Z M 379 273 L 384 271 L 389 274 L 384 276 Z M 326 274 L 330 271 L 332 271 L 348 282 L 345 285 L 342 285 Z M 284 274 L 289 279 L 297 276 L 292 271 Z M 393 265 L 396 262 L 398 262 L 402 265 L 398 268 L 396 268 Z M 244 291 L 198 263 L 195 263 L 138 301 L 137 303 L 143 306 L 146 306 L 195 273 L 198 273 L 235 296 L 238 296 Z M 378 290 L 331 262 L 328 262 L 310 274 L 310 275 L 342 295 L 345 295 L 355 288 L 358 288 L 361 291 L 347 301 L 343 302 L 318 287 L 316 287 L 311 292 L 322 299 L 307 310 L 303 311 L 289 302 L 287 299 L 290 297 L 293 297 L 302 304 L 305 304 L 312 300 L 312 299 L 279 279 L 277 279 L 245 300 L 244 302 L 250 305 L 253 305 L 276 289 L 279 289 L 281 292 L 270 299 L 270 300 L 318 328 L 321 328 L 338 317 L 333 312 L 331 312 L 321 318 L 317 318 L 314 316 L 328 305 L 333 305 L 343 312 L 346 312 L 378 291 Z M 310 265 L 303 262 L 297 268 L 305 270 Z M 113 260 L 116 258 L 119 258 L 131 266 L 133 269 L 130 271 L 127 271 L 115 263 Z M 149 259 L 150 261 L 155 264 L 163 261 L 158 256 Z M 56 252 L 61 257 L 70 254 L 69 252 L 64 249 Z M 163 250 L 169 256 L 176 253 L 171 248 Z M 43 244 L 48 249 L 56 246 L 51 241 Z M 42 238 L 38 233 L 29 236 L 30 238 L 35 241 Z M 454 230 L 452 233 L 438 242 L 433 240 L 435 237 L 449 228 Z M 498 230 L 493 227 L 490 227 L 254 385 L 251 385 L 13 235 L 6 234 L 0 240 L 251 398 L 253 398 L 497 232 Z M 220 225 L 221 224 L 222 225 L 221 226 Z M 217 224 L 218 223 L 220 224 L 219 225 Z M 279 222 L 280 221 L 281 222 L 280 223 Z M 281 221 L 282 220 L 284 221 L 283 222 Z M 283 220 L 284 219 L 287 220 L 286 221 Z M 48 217 L 53 219 L 49 223 L 45 221 Z M 69 262 L 130 297 L 133 297 L 189 260 L 189 259 L 183 256 L 180 256 L 131 288 L 129 288 L 126 286 L 127 284 L 149 270 L 150 268 L 118 248 L 115 248 L 97 260 L 96 262 L 115 273 L 121 278 L 116 280 L 88 263 L 86 260 L 114 241 L 117 241 L 140 256 L 143 256 L 160 246 L 163 243 L 157 239 L 154 239 L 145 245 L 140 246 L 90 215 L 88 215 L 83 218 L 82 220 L 101 231 L 106 236 L 70 260 Z M 95 210 L 98 213 L 140 239 L 143 239 L 150 236 L 144 231 L 105 207 L 102 207 Z M 55 202 L 56 204 L 61 207 L 69 204 L 64 199 Z M 96 202 L 92 199 L 88 198 L 65 214 L 62 214 L 54 209 L 48 207 L 17 228 L 16 230 L 21 233 L 24 233 L 35 226 L 38 226 L 75 249 L 77 249 L 95 237 L 96 235 L 90 232 L 87 232 L 79 238 L 74 239 L 72 237 L 83 228 L 82 226 L 79 224 L 76 224 L 64 231 L 61 231 L 59 228 L 95 204 Z M 417 206 L 417 207 L 437 218 L 439 218 L 443 213 L 433 206 L 435 203 L 438 203 L 474 226 L 477 226 L 483 223 L 474 216 L 439 194 L 436 194 Z M 162 201 L 167 206 L 166 214 L 172 210 L 179 214 L 177 206 L 182 201 L 176 201 L 173 194 L 167 202 Z M 214 193 L 201 213 L 201 215 L 218 223 L 215 224 L 201 218 L 198 218 L 197 224 L 194 226 L 193 231 L 194 232 L 217 233 L 237 240 L 240 240 L 243 238 L 247 239 L 247 210 L 246 206 L 232 196 Z M 282 192 L 263 196 L 252 204 L 251 208 L 251 239 L 254 238 L 257 240 L 260 240 L 280 232 L 296 231 L 305 229 L 299 217 L 296 217 L 289 220 L 286 219 L 296 214 Z M 325 191 L 324 191 L 321 199 L 314 199 L 319 203 L 318 212 L 323 208 L 331 211 L 330 203 L 335 199 L 328 199 Z M 75 190 L 70 193 L 69 195 L 76 199 L 81 196 L 82 194 Z M 470 230 L 453 219 L 450 219 L 438 226 L 435 226 L 408 210 L 405 207 L 429 190 L 429 189 L 423 186 L 420 186 L 390 206 L 390 207 L 427 231 L 425 234 L 411 243 L 409 243 L 406 240 L 416 232 L 414 229 L 410 228 L 398 235 L 395 235 L 379 224 L 381 221 L 384 221 L 394 227 L 397 227 L 403 224 L 403 223 L 385 211 L 382 211 L 363 223 L 366 226 L 414 255 L 413 259 L 408 259 L 397 253 L 394 253 L 383 260 L 379 256 L 389 249 L 390 247 L 358 228 L 355 228 L 310 258 L 310 259 L 316 262 L 319 262 L 356 238 L 359 238 L 372 246 L 374 249 L 357 260 L 355 260 L 352 257 L 364 249 L 364 248 L 356 245 L 338 257 L 337 259 L 355 270 L 358 270 L 371 263 L 373 263 L 375 266 L 365 273 L 364 275 L 383 286 L 386 286 L 430 258 L 429 256 L 419 249 L 422 245 L 427 246 L 437 251 L 440 251 L 470 231 Z M 166 150 L 162 158 L 156 158 L 161 162 L 160 170 L 166 166 L 173 170 L 172 162 L 177 157 L 172 157 L 171 158 L 167 150 Z M 328 147 L 325 155 L 318 155 L 324 160 L 322 167 L 327 164 L 335 167 L 334 159 L 339 155 L 333 155 L 329 147 Z M 175 112 L 172 120 L 165 120 L 170 124 L 169 132 L 174 129 L 182 132 L 181 124 L 186 120 L 180 120 L 176 112 Z M 188 89 L 193 94 L 192 102 L 198 98 L 205 102 L 204 94 L 209 89 L 202 89 L 199 82 L 198 82 L 195 89 Z M 294 80 L 291 88 L 284 88 L 290 92 L 288 100 L 294 96 L 301 100 L 300 92 L 305 87 L 298 87 L 295 80 Z M 219 69 L 235 81 L 235 85 L 230 101 L 245 90 L 249 91 L 264 100 L 258 84 L 258 81 L 274 68 L 257 68 L 255 69 L 247 53 L 247 51 L 245 49 L 245 52 L 239 69 Z M 244 34 L 247 34 L 301 68 L 320 79 L 341 98 L 352 123 L 353 146 L 354 148 L 371 159 L 371 187 L 378 192 L 366 201 L 327 225 L 252 274 L 249 274 L 213 252 L 121 199 L 118 196 L 125 191 L 125 165 L 124 163 L 140 152 L 142 149 L 143 123 L 154 99 L 176 79 Z M 244 22 L 167 73 L 146 93 L 135 116 L 132 144 L 115 156 L 115 183 L 116 185 L 104 195 L 101 199 L 249 286 L 252 286 L 369 210 L 383 202 L 395 193 L 380 181 L 380 152 L 363 141 L 361 118 L 357 106 L 346 88 L 322 68 L 247 22 Z M 80 187 L 91 191 L 106 179 L 106 151 L 105 149 L 122 139 L 126 107 L 142 79 L 170 57 L 244 12 L 249 13 L 285 34 L 319 52 L 349 73 L 368 103 L 370 121 L 373 135 L 390 145 L 390 175 L 405 186 L 410 185 L 417 182 L 417 181 L 400 168 L 400 137 L 381 126 L 380 107 L 365 74 L 335 49 L 248 1 L 243 0 L 156 53 L 131 75 L 117 101 L 113 131 L 96 141 L 96 170 L 97 172 L 82 184 Z" fill="#fff" fill-rule="evenodd"/>
</svg>